<?xml version="1.0" encoding="utf-8"?>
<!-- Generator: Adobe Illustrator 27.0.1, SVG Export Plug-In . SVG Version: 6.00 Build 0)  -->
<svg version="1.1" id="Layer_1" xmlns="http://www.w3.org/2000/svg" xmlns:xlink="http://www.w3.org/1999/xlink" x="0px" y="0px"
	 viewBox="0 0 500 500" style="enable-background:new 0 0 500 500;" xml:space="preserve">
<style type="text/css">
	.st0{fill:#231F20;}
</style>
<polygon class="st0" points="68.79,440.33 8.79,440.33 182,140.33 242,140.33 "/>
<polygon class="st0" points="431.21,440.33 491.21,440.33 318,140.33 258,140.33 "/>
<polygon class="st0" points="125.32,380.33 90.68,440.33 390.68,440.33 425.32,380.33 "/>
<rect x="367" y="380.33" class="st0" width="74.67" height="60"/>
<polygon class="st0" points="150.68,440.33 90.68,440.33 182.67,281 242.67,281 "/>
<polygon class="st0" points="354.79,338.99 218.17,338.99 183.25,281 319.87,281 "/>
<rect x="189.22" y="317.21" class="st0" width="33.78" height="21.78"/>
<polyline class="st0" points="190.37,125.67 250,24.33 309.63,125.67 "/>
<polyline class="st0" points="192.26,264.56 251.89,163.22 311.52,264.56 "/>
</svg>
