<?xml version="1.0" encoding="utf-8"?>
<!-- Generator: Adobe Illustrator 27.0.1, SVG Export Plug-In . SVG Version: 6.00 Build 0)  -->
<svg version="1.1" id="Layer_1" xmlns="http://www.w3.org/2000/svg" xmlns:xlink="http://www.w3.org/1999/xlink" x="0px" y="0px"
	 viewBox="0 0 500 500" style="enable-background:new 0 0 500 500;" xml:space="preserve">
<style type="text/css">
	.st0{fill:#231F20;}
</style>
<polygon class="st0" points="90.2,413.6 30.2,413.6 155.8,196.1 215.8,196.1 "/>
<polygon class="st0" points="400.5,413.6 105.2,413.6 139.9,353.6 435.1,353.6 "/>
<polygon class="st0" points="170.8,300 230.8,300 169.6,406 109.6,406 "/>
<polygon class="st0" points="294.2,86.4 259.4,146.4 375.1,353.6 435.1,353.6 "/>
<polygon class="st0" points="469.8,413.6 356.8,413.6 322.1,353.6 435.1,353.6 "/>
<polygon class="st0" points="219,86.4 279.1,86.4 224.4,181.1 164.4,181.1 "/>
<polygon class="st0" points="249.6,338.6 148.5,338.6 183.2,278.6 284.2,278.6 "/>
<polygon class="st0" points="351.6,338.5 245.3,338.6 278.3,278.6 318,278.5 "/>
</svg>
