<?xml version="1.0" encoding="utf-8"?>
<!-- Generator: Adobe Illustrator 27.0.1, SVG Export Plug-In . SVG Version: 6.00 Build 0)  -->
<svg version="1.1" id="Layer_1" xmlns="http://www.w3.org/2000/svg" xmlns:xlink="http://www.w3.org/1999/xlink" x="0px" y="0px"
	 viewBox="0 0 500 500" style="enable-background:new 0 0 500 500;" xml:space="preserve">
<style type="text/css">
	.st0{fill:#231F20;}
</style>
<polygon class="st0" points="90.22,403.91 30.22,403.91 155.84,186.33 215.84,186.33 "/>
<polygon class="st0" points="400.49,403.91 105.23,403.91 139.87,343.91 435.13,343.91 "/>
<polygon class="st0" points="170.84,290.28 230.84,290.28 169.63,396.3 109.63,396.3 "/>
<polygon class="st0" points="294.18,76.64 259.39,136.67 375.13,343.91 435.13,343.91 "/>
<polygon class="st0" points="469.77,403.91 356.77,403.91 322.13,343.91 435.13,343.91 "/>
<polygon class="st0" points="219.15,76.64 279.18,76.64 224.51,171.33 164.48,171.33 "/>
<polygon class="st0" points="250.26,327.68 149.25,327.68 183.89,267.68 284.9,267.68 "/>
<polygon class="st0" points="350.97,327.5 244.75,327.68 277.67,267.68 317.45,267.5 "/>
</svg>
