<?xml version="1.0" encoding="utf-8"?>
<!-- Generator: Adobe Illustrator 27.0.1, SVG Export Plug-In . SVG Version: 6.00 Build 0)  -->
<svg version="1.1" id="Layer_1" xmlns="http://www.w3.org/2000/svg" xmlns:xlink="http://www.w3.org/1999/xlink" x="0px" y="0px"
	 viewBox="0 0 500 500" style="enable-background:new 0 0 500 500;" xml:space="preserve">
<style type="text/css">
	.st0{fill:#231F20;}
</style>
<polygon class="st0" points="93.04,460.14 41.07,490.12 41.18,143.71 93.15,113.73 "/>
<polygon class="st0" points="406.96,279.04 458.93,249.05 158.98,75.75 107.01,105.74 "/>
<polygon class="st0" points="112.02,379.92 112,449.21 371.85,299.29 371.88,230.01 "/>
<rect x="331.36" y="236.48" transform="matrix(0.8662 -0.4997 0.4997 0.8662 -83.83 219.9014)" class="st0" width="74.67" height="60"/>
<polygon class="st0" points="314.37,244.83 177.88,323.57 118.4,290.94 254.9,212.19 "/>
<polygon class="st0" points="162.24,420.22 110.27,450.2 110.32,295.6 162.29,265.62 "/>
<rect x="145.7" y="302.87" transform="matrix(0.8662 -0.4997 0.4997 0.8662 -135.8467 124.6407)" class="st0" width="38.22" height="26.22"/>
<path class="st0" d="M231.33,55.94"/>
<path class="st0" d="M230,67.61"/>
<polyline class="st0" points="41.07,113.73 41.07,4.67 145.67,67.61 93.37,96 41.07,125 "/>
</svg>
